<?xml version="1.0" encoding="utf-8"?>
<!-- Generator: Adobe Illustrator 18.0.0, SVG Export Plug-In . SVG Version: 6.00 Build 0)  -->
<!DOCTYPE svg PUBLIC "-//W3C//DTD SVG 1.1//EN" "http://www.w3.org/Graphics/SVG/1.1/DTD/svg11.dtd">
<svg version="1.1" id="图层_2" xmlns="http://www.w3.org/2000/svg" xmlns:xlink="http://www.w3.org/1999/xlink" x="0px" y="0px"
	 viewBox="0 0 296 246.5" enable-background="new 0 0 296 246.5" xml:space="preserve">
<g>
	<polygon fill="#FFEDAC" points="207,246.5 295.5,246.5 295.5,0 273.5,0 273.5,78.5 266,79 266,157 247.5,157 247.5,134 207,134 	
		"/>
	<rect x="279.8" y="53.3" fill="#FCC2A0" width="4.5" height="11.5"/>
	<rect x="274.2" y="142.6" fill="#FCC2A0" width="4.5" height="11.5"/>
	<rect x="279.8" y="11.8" fill="#FCC2A0" width="4.5" height="11.5"/>
	<rect x="279.8" y="32.6" fill="#FFFDDC" width="4.5" height="11.5"/>
	<rect x="289.3" y="32.6" fill="#FCC2A0" width="4.5" height="11.5"/>
</g>
<g>
	<path fill="#FFEDAC" d="M0,54.5h40v79h14.5V160h32v32h19v54.5H2.2c-1.2,0-2.2-1-2.2-2.3V54.5z"/>
	<rect x="5.5" y="69.5" fill="#FCC2A0" width="4.5" height="11.5"/>
	<rect x="26.3" y="69.5" fill="#FCC2A0" width="4.5" height="11.5"/>
	<rect x="15.7" y="69.5" fill="#FFFDDC" width="4.5" height="11.5"/>
	<rect x="15.7" y="91.5" fill="#FCC2A0" width="4.5" height="11.5"/>
	<rect x="26.3" y="91.5" fill="#FCC2A0" width="4.5" height="11.5"/>
	<rect x="26.3" y="112.3" fill="#FCC2A0" width="4.5" height="11.5"/>
	<rect x="5.5" y="112.3" fill="#FCC2A0" width="4.5" height="11.5"/>
	<rect x="20.3" y="151.8" fill="#FCC2A0" width="4.5" height="11.5"/>
	<rect x="41.3" y="151.8" fill="#FCC2A0" width="4.5" height="11.5"/>
	<rect x="30.8" y="151.8" fill="#FFFDDC" width="4.5" height="11.5"/>
	<rect x="30.8" y="172.7" fill="#FCC2A0" width="4.5" height="11.5"/>
	<rect x="58" y="172.7" fill="#FCC2A0" width="4.5" height="11.5"/>
	<rect x="41.3" y="172.7" fill="#FFFDDC" width="4.5" height="11.5"/>
	<rect x="69.1" y="172.7" fill="#FFFDDC" width="4.5" height="11.5"/>
</g>
<g>
	<polygon fill="#E7B57B" points="206.5,246.5 296,246.5 296,92.5 285.5,92.5 285,202.5 269,202.5 269,226.5 247.5,226.5 247.5,202 
		206.5,202 	"/>
	<rect x="288.4" y="213.3" fill="#FFFDDC" width="4.5" height="11.5"/>
	<rect x="277" y="213.3" fill="#CB9D70" width="4.5" height="11.5"/>
</g>
<g>
	<polygon fill="#E7B57B" points="0,246.5 113,246.5 113,231.5 71.5,231.5 71.5,236 68,236 68,216 30.5,216 30.5,191.5 0,191.5 	"/>
	<path fill="#CB9D70" d="M18.8,207.5L18.8,207.5c1.2,0,2.3,1,2.3,2.3v7c0,1.2-1,2.3-2.2,2.3h0c-1.2,0-2.2-1-2.2-2.3v-7
		C16.5,208.5,17.5,207.5,18.8,207.5z"/>
	<path fill="#FFFDDC" d="M8.6,207.5L8.6,207.5c1.2,0,2.3,1,2.3,2.3v7c0,1.2-1,2.3-2.2,2.3h0c-1.2,0-2.2-1-2.2-2.3v-7
		C6.3,208.5,7.3,207.5,8.6,207.5z"/>
	<path fill="#CB9D70" d="M8.6,231.5L8.6,231.5c1.2,0,2.3,1,2.3,2.3v7c0,1.2-1,2.3-2.2,2.3h0c-1.2,0-2.2-1-2.2-2.3v-7
		C6.3,232.5,7.3,231.5,8.6,231.5z"/>
	<path fill="#CB9D70" d="M35.1,231.5L35.1,231.5c1.2,0,2.3,1,2.3,2.3v7c0,1.2-1,2.3-2.2,2.3h0c-1.2,0-2.2-1-2.2-2.3v-7
		C32.8,232.5,33.8,231.5,35.1,231.5z"/>
	<rect x="43.7" y="231.5" fill="#FFFDDC" width="4.5" height="11.5"/>
	<path fill="#CB9D70" d="M57.3,231.5L57.3,231.5c1.2,0,2.3,1,2.3,2.3v7c0,1.2-1,2.3-2.2,2.3h0c-1.2,0-2.3-1-2.3-2.3v-7
		C55,232.5,56,231.5,57.3,231.5z"/>
</g>
</svg>
