<?xml version="1.0" encoding="utf-8"?>
<!-- Generator: Adobe Illustrator 18.0.0, SVG Export Plug-In . SVG Version: 6.00 Build 0)  -->
<!DOCTYPE svg PUBLIC "-//W3C//DTD SVG 1.1//EN" "http://www.w3.org/Graphics/SVG/1.1/DTD/svg11.dtd">
<svg version="1.1" id="图层_1" xmlns="http://www.w3.org/2000/svg" xmlns:xlink="http://www.w3.org/1999/xlink" x="0px" y="0px"
	 viewBox="0 0 252.8 438.5" enable-background="new 0 0 252.8 438.5" xml:space="preserve">
<path d="M103.4,359.8h-0.5l0,0l0-0.5l-2,0l-3.3-20.2c0.7-0.9,0.9-2.9,0.9-4.3c0-1.3-0.2-3.3-0.9-4.2
	c0.3-0.6,0.5-1.8,0.5-4.3c0-1.7-0.1-2.9-0.3-3.6c0.7-1.2,0.7-3.7,0.7-4c0-0.4,0-2.8-0.7-4c0.1-0.7,0.2-1.8,0.2-3.5
	c0-1.6-0.1-2.7-0.2-3.4c0.6-1.3,0.7-3.6,0.7-4c0-0.3,0-2.6-0.6-3.9c0.1-0.7,0.2-1.7,0.2-3.2c0-1.5-0.1-2.5-0.2-3.2
	c0.6-1.3,0.6-3.5,0.6-3.9c0-0.4,0-2.8-0.7-4c0.1-0.7,0.2-1.8,0.2-3.5c0-1.6-0.1-2.7-0.2-3.4c0.6-1.3,0.7-3.6,0.7-4
	c0-0.3,0-2.6-0.6-3.9c0.1-0.7,0.2-1.7,0.2-3.2c0-1,0-1.7-0.1-2.3c0.6-1.3,0.6-3.5,0.6-3.8c0-0.4,0-2.8-0.7-4
	c0.1-0.7,0.2-1.8,0.2-3.5c0-1.6-0.1-2.7-0.2-3.4c0.6-1.3,0.7-3.6,0.7-4c0-0.3,0-2.6-0.6-3.9c0.1-0.7,0.2-1.7,0.2-3.2
	c0-1.5-0.1-2.5-0.2-3.2c0.6-1.3,0.6-3.5,0.6-3.8c0-0.4,0-2.8-0.7-4c0.1-0.7,0.2-1.8,0.2-3.5c0-1.6-0.1-2.7-0.2-3.4
	c0.6-1.3,0.7-3.6,0.7-4c0-0.3,0-2.6-0.6-3.9c0.1-0.7,0.2-1.7,0.2-3.2c0-1.5-0.1-2.5-0.2-3.2c0.6-1.3,0.6-3.5,0.6-3.9
	c0-0.4,0-2.8-0.7-4c0.1-0.7,0.2-1.8,0.2-3.5c0-1.6-0.1-2.7-0.2-3.4c0.6-1.3,0.7-3.6,0.7-4c0-0.3,0-2.6-0.6-3.9
	c0.1-0.7,0.2-1.7,0.2-3.2c0-1,0-1.7-0.1-2.3c0.6-1.3,0.6-3.5,0.6-3.8c0-0.4,0-2.8-0.7-4c0.1-0.7,0.2-1.8,0.2-3.5
	c0-1.6-0.1-2.7-0.2-3.4c0.6-1.3,0.7-3.6,0.7-4c0-0.3,0-2.6-0.6-3.9c0.1-0.7,0.2-1.7,0.2-3.2c0-1.7-0.1-2.8-0.2-3.5
	c0.5-1.3,0.5-3.3,0.5-3.6c0-0.4,0-2.8-0.7-4c0.1-0.7,0.2-1.8,0.2-3.5c0-1.6-0.1-2.7-0.2-3.4c0.6-1.3,0.7-3.6,0.7-4
	c0-0.3,0-2.6-0.6-3.9c0.1-0.7,0.2-1.7,0.2-3.2c0-1.5-0.1-2.5-0.2-3.2c0.6-1.3,0.6-3.5,0.6-3.9c0-0.4,0-2.8-0.7-4
	c0.1-0.7,0.2-1.8,0.2-3.5c0-1.6-0.1-2.7-0.2-3.4c0.6-1.3,0.7-3.6,0.7-4c0-0.3,0-2.6-0.6-3.9c0.1-0.7,0.2-1.7,0.2-3.2
	c0-1,0-1.7-0.1-2.3c0.6-1.3,0.6-3.5,0.6-3.8c0-0.4,0-2.8-0.7-4c0.1-0.7,0.2-1.8,0.2-3.5c0-1.6-0.1-2.7-0.2-3.4
	c0.6-1.3,0.7-3.6,0.7-4c0-0.3,0-2.6-0.6-3.9c0.1-0.7,0.2-1.7,0.2-3.2c0-0.5,0-0.9,0-1.3c0.6-1.3,0.6-3.5,0.6-3.9c0-0.4,0-2.8-0.7-4
	c0.1-0.7,0.2-1.8,0.2-3.5c0-1.6-0.1-2.7-0.2-3.4c0.6-1.3,0.7-3.6,0.7-4c0-0.3,0-2.6-0.6-3.9c0.1-0.7,0.2-1.7,0.2-3.2
	c0-1.5-0.1-2.5-0.2-3.2c0.6-1.3,0.6-3.5,0.6-3.9c0-0.4,0-2.8-0.7-4c0.1-0.7,0.2-1.8,0.2-3.5c0-1.6-0.1-2.7-0.2-3.4
	c0.6-1.3,0.7-3.6,0.7-4c0-0.3,0-2.6-0.6-3.9c0.1-0.7,0.2-1.7,0.2-3.2c0-1,0-1.7-0.1-2.3c0.6-1.3,0.6-3.5,0.6-3.8
	c0-0.5,0-4.7-1.6-4.7s-1.6,4.2-1.6,4.7c0,0.3,0,2.5,0.6,3.7C96.1,9.1,96,9.8,96,10.8c0,1.2,0.1,2.2,0.1,2.8
	c-0.8,1.2-0.8,3.9-0.8,4.2c0,0.4,0,3.1,0.8,4.3c-0.1,0.7-0.2,1.7-0.2,3.1c0,1.6,0.1,2.7,0.2,3.4c-0.7,1.2-0.8,3.8-0.8,4.1
	c0,0.4,0,2.8,0.7,4c-0.1,0.7-0.2,1.7-0.2,3c0,1.2,0.1,2.2,0.1,2.8c-0.8,1.2-0.8,3.9-0.8,4.2c0,0.4,0,3.1,0.8,4.3
	C96.1,52,96,53,96,54.4c0,1.6,0.1,2.7,0.2,3.4c-0.7,1.2-0.8,3.8-0.8,4.1c0,0.3,0,2.1,0.4,3.4c0,0.5,0,1.1,0,1.8
	c0,1.2,0.1,2.2,0.1,2.8c-0.8,1.2-0.8,3.9-0.8,4.2c0,0.4,0,3.1,0.8,4.3c-0.1,0.7-0.2,1.7-0.2,3.1c0,1.6,0.1,2.7,0.2,3.4
	c-0.7,1.2-0.8,3.8-0.8,4.1c0,0.3,0,2.5,0.6,3.7c-0.1,0.6-0.1,1.4-0.1,2.4c0,1.2,0.1,2.2,0.1,2.8c-0.8,1.2-0.8,3.9-0.8,4.2
	c0,0.4,0,3.1,0.8,4.3c-0.1,0.7-0.2,1.7-0.2,3.1c0,1.6,0.1,2.7,0.2,3.4c-0.7,1.2-0.8,3.8-0.8,4.1c0,0.4,0,2.8,0.7,4
	c-0.1,0.7-0.2,1.7-0.2,3c0,1.2,0.1,2.2,0.1,2.8c-0.8,1.2-0.8,3.9-0.8,4.2c0,0.4,0,3.1,0.8,4.3c-0.1,0.7-0.2,1.7-0.2,3.1
	c0,1.6,0.1,2.7,0.2,3.4c-0.7,1.2-0.8,3.8-0.8,4.1c0,0.4,0,2.9,0.7,4.1c-0.1,0.7-0.2,1.7-0.2,3c0,1.2,0.1,2.2,0.1,2.8
	c-0.8,1.2-0.8,3.9-0.8,4.2c0,0.4,0,3.1,0.8,4.3c-0.1,0.7-0.2,1.7-0.2,3.1c0,1.6,0.1,2.7,0.2,3.4c-0.7,1.2-0.8,3.8-0.8,4.1
	c0,0.3,0,2.5,0.6,3.7c-0.1,0.6-0.1,1.4-0.1,2.4c0,1.2,0.1,2.2,0.1,2.8c-0.8,1.2-0.8,3.9-0.8,4.2c0,0.4,0,3.1,0.8,4.3
	c-0.1,0.7-0.2,1.7-0.2,3.1c0,1.6,0.1,2.7,0.2,3.4c-0.7,1.2-0.8,3.8-0.8,4.1c0,0.4,0,2.8,0.7,4c-0.1,0.7-0.2,1.7-0.2,3
	c0,1.2,0.1,2.2,0.1,2.8c-0.8,1.2-0.8,3.9-0.8,4.2c0,0.4,0,3.1,0.8,4.3c-0.1,0.7-0.2,1.7-0.2,3.1c0,1.6,0.1,2.7,0.2,3.4
	c-0.7,1.2-0.8,3.8-0.8,4.1c0,0.4,0,3.2,0.9,4.3c-0.1,0.7-0.1,1.6-0.1,2.8c0,1.2,0.1,2.2,0.1,2.8c-0.8,1.2-0.8,3.9-0.8,4.2
	c0,0.4,0,3.1,0.8,4.3c-0.1,0.7-0.2,1.7-0.2,3.1c0,1.6,0.1,2.7,0.2,3.4c-0.7,1.2-0.8,3.8-0.8,4.1c0,0.3,0,2.5,0.6,3.7
	c-0.1,0.6-0.1,1.4-0.1,2.4c0,1.2,0.1,2.2,0.1,2.8c-0.8,1.2-0.8,3.9-0.8,4.2c0,0.4,0,3.1,0.8,4.3c-0.1,0.7-0.2,1.7-0.2,3.1
	c0,1.6,0.1,2.7,0.2,3.4c-0.7,1.2-0.8,3.8-0.8,4.1c0,0.4,0,2.8,0.7,4c-0.1,0.7-0.2,1.7-0.2,3c0,1.2,0.1,2.2,0.1,2.8
	c-0.8,1.2-0.8,3.9-0.8,4.2c0,0.4,0,3.1,0.8,4.3c-0.1,0.7-0.2,1.7-0.2,3.1c0,1.6,0.1,2.7,0.2,3.4c-0.7,1.2-0.8,3.8-0.8,4.1
	c0,0.4,0,3,0.8,4.1c-0.1,0.7-0.2,1.8-0.2,3.5c0,2.2,0.2,3.3,0.4,4c-0.9,0.7-1.2,3-1.2,4.5c0,1.5,0.3,3.9,1.2,4.6l-3.4,19.9l-66-0.8
	v-0.1h-0.5v-0.5h-12v0.5l-0.3-0.4l-1.2,0.9L10.2,339c0.7-0.9,0.9-2.9,0.9-4.3c0-1.3-0.2-3.3-0.9-4.2c0.3-0.6,0.5-1.8,0.5-4.3
	c0-1.7-0.1-2.9-0.3-3.6c0.7-1.2,0.7-3.7,0.7-4c0-0.4,0-2.8-0.7-4c0.1-0.7,0.2-1.8,0.2-3.5c0-1.6-0.1-2.7-0.2-3.4
	c0.6-1.3,0.7-3.6,0.7-4c0-0.3,0-2.6-0.6-3.9c0.1-0.7,0.2-1.7,0.2-3.2c0-1.5-0.1-2.5-0.2-3.2c0.6-1.3,0.6-3.5,0.6-3.9
	c0-0.4,0-2.8-0.7-4c0.1-0.7,0.2-1.8,0.2-3.5c0-1.6-0.1-2.7-0.2-3.4c0.6-1.3,0.7-3.6,0.7-4c0-0.3,0-2.6-0.6-3.9
	c0.1-0.7,0.2-1.7,0.2-3.2c0-1,0-1.7-0.1-2.3c0.6-1.3,0.6-3.5,0.6-3.8c0-0.4,0-2.8-0.7-4c0.1-0.7,0.2-1.8,0.2-3.5
	c0-1.6-0.1-2.7-0.2-3.4c0.6-1.3,0.7-3.6,0.7-4c0-0.3,0-2.6-0.6-3.9c0.1-0.7,0.2-1.7,0.2-3.2c0-1.5-0.1-2.5-0.2-3.2
	c0.6-1.3,0.6-3.5,0.6-3.8c0-0.4,0-2.8-0.7-4c0.1-0.7,0.2-1.8,0.2-3.5c0-1.6-0.1-2.7-0.2-3.4c0.6-1.3,0.7-3.6,0.7-4
	c0-0.3,0-2.6-0.6-3.9c0.1-0.7,0.2-1.7,0.2-3.2c0-1.5-0.1-2.5-0.2-3.2c0.6-1.3,0.6-3.5,0.6-3.9c0-0.4,0-2.8-0.7-4
	c0.1-0.7,0.2-1.8,0.2-3.5c0-1.6-0.1-2.7-0.2-3.4c0.6-1.3,0.7-3.6,0.7-4c0-0.3,0-2.6-0.6-3.9c0.1-0.7,0.2-1.7,0.2-3.2
	c0-1,0-1.7-0.1-2.3c0.6-1.3,0.6-3.5,0.6-3.8c0-0.4,0-2.8-0.7-4c0.1-0.7,0.2-1.8,0.2-3.5c0-1.6-0.1-2.7-0.2-3.4
	c0.6-1.3,0.7-3.6,0.7-4c0-0.3,0-2.6-0.6-3.9c0.1-0.7,0.2-1.7,0.2-3.2c0-1.7-0.1-2.8-0.2-3.5c0.5-1.3,0.5-3.3,0.5-3.6
	c0-0.4,0-2.8-0.7-4c0.1-0.7,0.2-1.8,0.2-3.5c0-1.6-0.1-2.7-0.2-3.4c0.6-1.3,0.7-3.6,0.7-4c0-0.3,0-2.6-0.6-3.9
	c0.1-0.7,0.2-1.7,0.2-3.2c0-1.5-0.1-2.5-0.2-3.2c0.6-1.3,0.6-3.5,0.6-3.9c0-0.4,0-2.8-0.7-4c0.1-0.7,0.2-1.8,0.2-3.5
	c0-1.6-0.1-2.7-0.2-3.4c0.6-1.3,0.7-3.6,0.7-4c0-0.3,0-2.6-0.6-3.9c0.1-0.7,0.2-1.7,0.2-3.2c0-1,0-1.7-0.1-2.3
	c0.6-1.3,0.6-3.5,0.6-3.8c0-0.4,0-2.8-0.7-4c0.1-0.7,0.2-1.8,0.2-3.5c0-1.6-0.1-2.7-0.2-3.4c0.6-1.3,0.7-3.6,0.7-4
	c0-0.3,0-2.6-0.6-3.9c0.1-0.7,0.2-1.7,0.2-3.2c0-0.5,0-0.9,0-1.3c0.6-1.3,0.6-3.5,0.6-3.9c0-0.4,0-2.8-0.7-4
	c0.1-0.7,0.2-1.8,0.2-3.5c0-1.6-0.1-2.7-0.2-3.4c0.6-1.3,0.7-3.6,0.7-4c0-0.3,0-2.6-0.6-3.9c0.1-0.7,0.2-1.7,0.2-3.2
	c0-1.5-0.1-2.5-0.2-3.2c0.6-1.3,0.6-3.5,0.6-3.9c0-0.4,0-2.8-0.7-4c0.1-0.7,0.2-1.8,0.2-3.5c0-1.6-0.1-2.7-0.2-3.4
	c0.6-1.3,0.7-3.6,0.7-4c0-0.3,0-2.6-0.6-3.9c0.1-0.7,0.2-1.7,0.2-3.2c0-1,0-1.7-0.1-2.3c0.6-1.3,0.6-3.5,0.6-3.8
	c0-0.5,0-4.7-1.6-4.7S8.2,4.2,8.2,4.7c0,0.3,0,2.5,0.6,3.7c-0.1,0.6-0.1,1.4-0.1,2.4c0,1.2,0.1,2.2,0.1,2.8C8,14.9,8,17.5,8,17.9
	c0,0.4,0,3.1,0.8,4.3c-0.1,0.7-0.2,1.7-0.2,3.1c0,1.6,0.1,2.7,0.2,3.4c-0.7,1.2-0.8,3.8-0.8,4.1c0,0.4,0,2.8,0.7,4
	c-0.1,0.7-0.2,1.7-0.2,3c0,1.2,0.1,2.2,0.1,2.8C8,43.9,8,46.6,8,47c0,0.4,0,3.1,0.8,4.3C8.7,52,8.6,53,8.6,54.4
	c0,1.6,0.1,2.7,0.2,3.4c-0.7,1.2-0.8,3.8-0.8,4.1c0,0.3,0,2.1,0.4,3.4c0,0.5,0,1.1,0,1.8c0,1.2,0.1,2.2,0.1,2.8
	c-0.8,1.2-0.8,3.9-0.8,4.2c0,0.4,0,3.1,0.8,4.3c-0.1,0.7-0.2,1.7-0.2,3.1c0,1.6,0.1,2.7,0.2,3.4C8,86.1,8,88.7,8,89
	c0,0.3,0,2.5,0.6,3.7c-0.1,0.6-0.1,1.4-0.1,2.4c0,1.2,0.1,2.2,0.1,2.8c-0.8,1.2-0.8,3.9-0.8,4.2c0,0.4,0,3.1,0.8,4.3
	c-0.1,0.7-0.2,1.7-0.2,3.1c0,1.6,0.1,2.7,0.2,3.4c-0.7,1.2-0.8,3.8-0.8,4.1c0,0.4,0,2.8,0.7,4c-0.1,0.7-0.2,1.7-0.2,3
	c0,1.2,0.1,2.2,0.1,2.8c-0.8,1.2-0.8,3.9-0.8,4.2c0,0.4,0,3.1,0.8,4.3c-0.1,0.7-0.2,1.7-0.2,3.1c0,1.6,0.1,2.7,0.2,3.4
	c-0.7,1.2-0.8,3.8-0.8,4.1c0,0.4,0,2.9,0.7,4.1c-0.1,0.7-0.2,1.7-0.2,3c0,1.2,0.1,2.2,0.1,2.8c-0.8,1.2-0.8,3.9-0.8,4.2
	c0,0.4,0,3.1,0.8,4.3c-0.1,0.7-0.2,1.7-0.2,3.1c0,1.6,0.1,2.7,0.2,3.4c-0.7,1.2-0.8,3.8-0.8,4.1c0,0.3,0,2.5,0.6,3.7
	c-0.1,0.6-0.1,1.4-0.1,2.4c0,1.2,0.1,2.2,0.1,2.8c-0.8,1.2-0.8,3.9-0.8,4.2c0,0.4,0,3.1,0.8,4.3c-0.1,0.7-0.2,1.7-0.2,3.1
	c0,1.6,0.1,2.7,0.2,3.4c-0.7,1.2-0.8,3.8-0.8,4.1c0,0.4,0,2.8,0.7,4c-0.1,0.7-0.2,1.7-0.2,3c0,1.2,0.1,2.2,0.1,2.8
	c-0.8,1.2-0.8,3.9-0.8,4.2c0,0.4,0,3.1,0.8,4.3c-0.1,0.7-0.2,1.7-0.2,3.1c0,1.6,0.1,2.7,0.2,3.4c-0.7,1.2-0.8,3.8-0.8,4.1
	c0,0.4,0,3.2,0.9,4.3c-0.1,0.7-0.1,1.6-0.1,2.8c0,1.2,0.1,2.2,0.1,2.8c-0.8,1.2-0.8,3.9-0.8,4.2c0,0.4,0,3.1,0.8,4.3
	c-0.1,0.7-0.2,1.7-0.2,3.1c0,1.6,0.1,2.7,0.2,3.4c-0.7,1.2-0.8,3.8-0.8,4.1c0,0.3,0,2.5,0.6,3.7c-0.1,0.6-0.1,1.4-0.1,2.4
	c0,1.2,0.1,2.2,0.1,2.8c-0.8,1.2-0.8,3.9-0.8,4.2c0,0.4,0,3.1,0.8,4.3c-0.1,0.7-0.2,1.7-0.2,3.1c0,1.6,0.1,2.7,0.2,3.4
	C8,286.6,8,289.2,8,289.6c0,0.4,0,2.8,0.7,4c-0.1,0.7-0.2,1.7-0.2,3c0,1.2,0.1,2.2,0.1,2.8c-0.8,1.2-0.8,3.9-0.8,4.2
	c0,0.4,0,3.1,0.8,4.3c-0.1,0.7-0.2,1.7-0.2,3.1c0,1.6,0.1,2.7,0.2,3.4C8,315.7,8,318.3,8,318.7c0,0.4,0,3,0.8,4.1
	c-0.1,0.7-0.2,1.8-0.2,3.5c0,2.2,0.2,3.3,0.4,4c-0.9,0.7-1.2,3-1.2,4.5c0,1.5,0.3,3.8,1.1,4.5l-7.7,28l-0.9,0.7l0.3,0.4H0v12h0.5
	v0.5h90.3v-0.5l0.3,0.4l12-8.5l-0.3-0.4h0.5V359.8z M15.8,368.2l10.8-8.8l60.4,0.8l-9.1,7.2l0,0.1L15.8,368.2z M20.4,363.1l4.8-4.2
	l-0.1-0.2h0.7L20.4,363.1z M13.9,368.7v11H1v-11l12.9-0.5V368.7z M14.9,369.2l62.4-0.8l0.4,11.3H14.9V369.2z M78.3,368.4l12.1-0.2
	v11.5H78.6L78.3,368.4z M91.3,368l11-7.3v10.7l-11,7.8V368z M100,361.1l-0.1-0.8l0.2,0l0.1,0.7L100,361.1z M99.1,361.7l-5.3,3.5
	l0.7-5l4.5,0.1L99.1,361.7z M94.6,359.2l2.3-16.9l1.9,16.9L94.6,359.2z M101.2,360.3l-0.1,0.1l0-0.1L101.2,360.3z M99.8,359.3
	l-0.2-1.9L99.8,359.3L99.8,359.3z M97,315.9c0.1,0,0.2,0,0.3-0.1c0.2,0.6,0.3,1.6,0.3,2.8c0,1.3-0.1,2.2-0.3,2.8
	c-0.1,0-0.2-0.1-0.3-0.1c-0.1,0-0.2,0-0.3,0.1c-0.2-0.6-0.3-1.6-0.3-2.9c0-1.2,0.1-2.2,0.3-2.8C96.8,315.9,96.9,315.9,97,315.9z
	 M96.7,172.5c0.1,0,0.2,0,0.2,0c0,0,0,0,0.1,0c0,0,0.1,0,0.1,0c0,0,0.1,0,0.1,0c0.2,0.6,0.3,1.5,0.3,2.7c0,0.6,0,1-0.1,1.5
	c-0.2-0.2-0.3-0.2-0.4-0.2c0,0,0,0-0.1,0c0,0-0.1,0-0.1,0c-0.1,0-0.2,0-0.4,0.1c0-0.4-0.1-0.9-0.1-1.4
	C96.4,174.1,96.6,173.1,96.7,172.5z M96.7,200.6c0.1,0,0.2,0,0.2,0c0,0,0,0,0.1,0c0,0,0.1,0,0.1,0c0,0,0.1,0,0.1,0
	c0.2,0.6,0.3,1.5,0.3,2.7c0,0.9-0.1,1.7-0.2,2.3c-0.1,0-0.2,0-0.2,0c0,0,0,0-0.1,0c0,0-0.1,0-0.1,0c-0.1,0-0.2,0-0.3,0.1
	c-0.1-0.6-0.2-1.4-0.2-2.4C96.4,202.2,96.5,201.3,96.7,200.6z M96.7,229.7c0.1,0,0.2,0,0.2,0c0,0,0,0,0.1,0c0,0,0.1,0,0.1,0
	c0,0,0.1,0,0.1,0c0.2,0.6,0.3,1.5,0.3,2.7c0,0.9-0.1,1.7-0.2,2.3c-0.1,0-0.1,0-0.2,0c-0.1,0-0.3,0-0.5,0.2c-0.1-0.6-0.2-1.4-0.2-2.5
	C96.4,231.2,96.5,230.3,96.7,229.7z M96.6,4.7c0-2,0.4-3.3,0.6-3.6c0.2,0.4,0.6,1.6,0.6,3.6c0,0.6,0,1.2-0.1,1.6
	C97.5,6,97.3,6,97.1,6c-0.1,0-0.3,0-0.5,0.3C96.6,5.8,96.6,5.3,96.6,4.7z M96.3,17.9c0-1.1,0.1-2,0.3-2.6c0.2,0.3,0.4,0.3,0.5,0.3
	c0.1,0,0.2,0,0.4-0.1c0.1,0.6,0.2,1.4,0.2,2.4c0,1.1-0.1,2-0.3,2.6c-0.1-0.1-0.2-0.1-0.3-0.1c-0.1,0-0.3,0-0.5,0.2
	C96.5,20.1,96.3,19.1,96.3,17.9z M96.5,32.8c0-1.2,0.1-2.2,0.3-2.8c0.1,0.1,0.3,0.1,0.4,0.1c0.1,0,0.2,0,0.3-0.1
	c0.2,0.6,0.3,1.6,0.3,2.8c0,1-0.1,1.8-0.2,2.4c-0.1-0.1-0.3-0.1-0.4-0.1c-0.1,0-0.3,0-0.4,0.2C96.6,34.7,96.5,33.8,96.5,32.8z
	 M96.3,47c0-1.1,0.1-2,0.3-2.6c0.2,0.3,0.4,0.3,0.5,0.3c0.1,0,0.2,0,0.4-0.1c0.1,0.6,0.2,1.4,0.2,2.4c0,1.1-0.1,2-0.3,2.6
	c-0.1-0.1-0.2-0.1-0.3-0.1c-0.1,0-0.3,0-0.5,0.2C96.5,49.1,96.3,48.2,96.3,47z M96.5,61.9c0-1.2,0.1-2.2,0.3-2.8
	c0.1,0.1,0.3,0.1,0.4,0.1c0.1,0,0.2,0,0.3-0.1c0.2,0.6,0.3,1.6,0.3,2.8c0,0.4,0,0.7,0,1c-0.2-0.6-0.5-0.6-0.7-0.6
	c-0.1,0-0.3,0-0.5,0.3C96.5,62.3,96.5,62.1,96.5,61.9z M96.2,74.1c0-1.1,0.1-2,0.3-2.6c0.2,0.3,0.4,0.3,0.5,0.3c0.1,0,0.2,0,0.4-0.1
	c0.1,0.6,0.2,1.4,0.2,2.4c0,1.1-0.1,2-0.3,2.6c-0.1-0.1-0.2-0.1-0.3-0.1c-0.1,0-0.3,0-0.5,0.2C96.3,76.3,96.2,75.3,96.2,74.1z
	 M96.3,89c0-1.2,0.1-2.2,0.3-2.8c0.1,0.1,0.3,0.1,0.4,0.1c0.1,0,0.2,0,0.3-0.1c0.2,0.6,0.3,1.6,0.3,2.8c0,0.6,0,1.2-0.1,1.6
	c-0.2-0.3-0.4-0.3-0.5-0.3c-0.1,0-0.3,0-0.5,0.3C96.4,90.2,96.3,89.6,96.3,89z M96.1,102.2c0-1.1,0.1-2,0.3-2.6
	c0.2,0.3,0.4,0.3,0.5,0.3c0.1,0,0.2,0,0.4-0.1c0.1,0.6,0.2,1.4,0.2,2.4c0,1.1-0.1,2-0.3,2.6c-0.1-0.1-0.2-0.1-0.3-0.1
	c-0.1,0-0.3,0-0.5,0.2C96.3,104.4,96.1,103.4,96.1,102.2z M96.3,117.1c0-1.2,0.1-2.2,0.3-2.8c0.1,0.1,0.3,0.1,0.4,0.1
	c0.1,0,0.2,0,0.3-0.1c0.2,0.6,0.3,1.6,0.3,2.8c0,1-0.1,1.8-0.2,2.4c-0.1-0.1-0.3-0.1-0.4-0.1c-0.1,0-0.3,0-0.4,0.2
	C96.4,119,96.3,118.2,96.3,117.1z M96.1,131.3c0-1.1,0.1-2,0.3-2.6c0.2,0.3,0.4,0.3,0.5,0.3c0.1,0,0.2,0,0.4-0.1
	c0.1,0.6,0.2,1.4,0.2,2.4c0,1.1-0.1,2-0.3,2.6c-0.1-0.1-0.2-0.1-0.3-0.1c-0.1,0-0.3,0-0.5,0.2C96.3,133.5,96.1,132.5,96.1,131.3z
	 M96.3,146.2c0-1.2,0.1-2.2,0.3-2.8c0.1,0.1,0.3,0.1,0.4,0.1c0.1,0,0.2,0,0.3-0.1c0.2,0.6,0.3,1.6,0.3,2.8c0,0.9-0.1,1.7-0.2,2.3
	c-0.1,0-0.1,0-0.2,0c0,0,0,0-0.1,0c0,0-0.1,0-0.1,0c-0.1,0-0.3,0-0.5,0.2C96.4,148.1,96.3,147.2,96.3,146.2z M96.3,246.6
	c0-1.1,0.1-2,0.3-2.6c0.2,0.3,0.4,0.3,0.5,0.3c0.1,0,0.2,0,0.4-0.1c0.1,0.6,0.2,1.4,0.2,2.4c0,1.1-0.1,2-0.3,2.6
	c-0.1-0.1-0.2-0.1-0.3-0.1c-0.1,0-0.3,0-0.5,0.2C96.4,248.7,96.3,247.8,96.3,246.6z M96.4,261.5c0-1.2,0.1-2.2,0.3-2.8
	c0.1,0.1,0.3,0.1,0.4,0.1c0.1,0,0.2,0,0.3-0.1c0.2,0.6,0.3,1.6,0.3,2.8c0,0.6,0,1.2-0.1,1.6c-0.2-0.3-0.4-0.3-0.5-0.3
	c-0.1,0-0.3,0-0.5,0.3C96.5,262.6,96.4,262.1,96.4,261.5z M96.2,274.7c0-1.1,0.1-2,0.3-2.6c0.2,0.3,0.4,0.3,0.5,0.3
	c0.1,0,0.2,0,0.4-0.1c0.1,0.6,0.2,1.4,0.2,2.4c0,1.1-0.1,2-0.3,2.6c-0.1-0.1-0.2-0.1-0.3-0.1c-0.1,0-0.3,0-0.5,0.3
	C96.3,276.8,96.2,275.9,96.2,274.7z M96.3,289.6c0-1.2,0.1-2.2,0.3-2.8c0.1,0.1,0.3,0.1,0.4,0.1c0.1,0,0.2,0,0.3-0.1
	c0.2,0.6,0.3,1.6,0.3,2.8c0,1-0.1,1.8-0.2,2.4c-0.1-0.1-0.3-0.1-0.4-0.1c-0.1,0-0.3,0-0.4,0.2C96.4,291.4,96.3,290.6,96.3,289.6z
	 M96.2,303.8c0-1.1,0.1-2,0.3-2.6c0.2,0.3,0.4,0.3,0.5,0.3c0.1,0,0.2,0,0.4-0.1c0.1,0.6,0.2,1.4,0.2,2.4c0,1.1-0.1,2-0.3,2.6
	c-0.1-0.1-0.2-0.1-0.3-0.1c-0.1,0-0.3,0-0.5,0.3C96.3,305.9,96.2,305,96.2,303.8z M96.1,334.8c0-2.4,0.6-3.6,0.7-3.7
	c0.2,0.1,0.8,1.4,0.8,3.7c0,1.8-0.3,3-0.6,3.4l-0.3-0.1C96.4,337.6,96.1,336.5,96.1,334.8z M91.6,366.6l-0.9,0.6l-11.3,0.1l9-7.2
	l-0.1-0.1l4.4,0.1L91.6,366.6z M14.5,358.8h9.3l-9.7,8.5l-12,0.5L14.5,358.8z M4.1,365.1l5.2-23.3l1.2,18.6L4.1,365.1z M11.5,359.7
	l-0.4-6.6l0.8,6.3L11.5,359.7z M9.6,315.9c0.1,0,0.2,0,0.3-0.1c0.2,0.6,0.3,1.6,0.3,2.8c0,1.3-0.1,2.2-0.3,2.8
	c-0.1,0-0.2-0.1-0.3-0.1c-0.1,0-0.2,0-0.3,0.1c-0.2-0.6-0.3-1.6-0.3-2.9c0-1.2,0.1-2.2,0.3-2.8C9.4,315.9,9.5,315.9,9.6,315.9z
	 M9.4,172.5c0.1,0,0.2,0,0.2,0c0,0,0,0,0.1,0c0,0,0.1,0,0.1,0c0,0,0.1,0,0.1,0c0.2,0.6,0.3,1.5,0.3,2.7c0,0.6,0,1-0.1,1.5
	c-0.2-0.2-0.3-0.2-0.4-0.2c0,0,0,0-0.1,0c0,0-0.1,0-0.1,0c-0.1,0-0.2,0-0.4,0.1c0-0.4-0.1-0.9-0.1-1.4
	C9.1,174.1,9.2,173.1,9.4,172.5z M9.5,186.2C9.5,186.2,9.6,186.2,9.5,186.2c0.1,0,0.1,0,0.2,0c0.1,0,0.1,0,0.2,0
	c0.1,0.6,0.2,1.4,0.2,2.3c0,1.1-0.1,1.9-0.2,2.6c-0.1,0-0.1,0-0.2,0c0,0,0,0-0.1,0c0,0-0.1,0-0.1,0c-0.1,0-0.2,0-0.4,0.1
	c-0.2-0.7-0.3-1.6-0.3-2.7c0-1,0.1-1.8,0.2-2.4C9.3,186.2,9.4,186.2,9.5,186.2z M9.3,200.6c0.1,0,0.2,0,0.2,0c0,0,0,0,0.1,0
	c0,0,0.1,0,0.1,0c0,0,0.1,0,0.1,0c0.2,0.6,0.3,1.5,0.3,2.7c0,0.9-0.1,1.7-0.2,2.3c-0.1,0-0.2,0-0.2,0c0,0,0,0-0.1,0c0,0-0.1,0-0.1,0
	c-0.1,0-0.2,0-0.3,0.1c-0.1-0.6-0.2-1.4-0.2-2.4C9,202.2,9.1,201.3,9.3,200.6z M9.3,229.7c0.1,0,0.2,0,0.2,0c0,0,0,0,0.1,0
	c0,0,0.1,0,0.1,0c0,0,0.1,0,0.1,0c0.2,0.6,0.3,1.5,0.3,2.7c0,0.9-0.1,1.7-0.2,2.3c-0.1,0-0.1,0-0.2,0c-0.1,0-0.3,0-0.5,0.2
	c-0.1-0.6-0.2-1.4-0.2-2.5C9,231.2,9.1,230.3,9.3,229.7z M9.2,4.7c0-2,0.4-3.3,0.6-3.6c0.2,0.4,0.6,1.6,0.6,3.6c0,0.6,0,1.2-0.1,1.6
	C10.1,6,9.9,6,9.8,6C9.6,6,9.5,6,9.3,6.3C9.2,5.8,9.2,5.3,9.2,4.7z M9,17.9c0-1.1,0.1-2,0.3-2.6c0.2,0.3,0.4,0.3,0.5,0.3
	c0.1,0,0.2,0,0.4-0.1c0.1,0.6,0.2,1.4,0.2,2.4c0,1.1-0.1,2-0.3,2.6c-0.1-0.1-0.2-0.1-0.3-0.1c-0.1,0-0.3,0-0.5,0.2
	C9.1,20.1,9,19.1,9,17.9z M9.1,32.8c0-1.2,0.1-2.2,0.3-2.8c0.1,0.1,0.3,0.1,0.4,0.1c0.1,0,0.2,0,0.3-0.1c0.2,0.6,0.3,1.6,0.3,2.8
	c0,1-0.1,1.8-0.2,2.4c-0.1-0.1-0.3-0.1-0.4-0.1c-0.1,0-0.3,0-0.4,0.2C9.2,34.7,9.1,33.8,9.1,32.8z M9,47c0-1.1,0.1-2,0.3-2.6
	c0.2,0.3,0.4,0.3,0.5,0.3c0.1,0,0.2,0,0.4-0.1c0.1,0.6,0.2,1.4,0.2,2.4c0,1.1-0.1,2-0.3,2.6c-0.1-0.1-0.2-0.1-0.3-0.1
	c-0.1,0-0.3,0-0.5,0.2C9.1,49.1,9,48.2,9,47z M9.1,61.9c0-1.2,0.1-2.2,0.3-2.8c0.1,0.1,0.3,0.1,0.4,0.1c0.1,0,0.2,0,0.3-0.1
	c0.2,0.6,0.3,1.6,0.3,2.8c0,0.4,0,0.7,0,1c-0.2-0.6-0.5-0.6-0.7-0.6c-0.1,0-0.3,0-0.5,0.3C9.1,62.3,9.1,62.1,9.1,61.9z M8.8,74.1
	c0-1.1,0.1-2,0.3-2.6c0.2,0.3,0.4,0.3,0.5,0.3c0.1,0,0.2,0,0.4-0.1c0.1,0.6,0.2,1.4,0.2,2.4c0,1.1-0.1,2-0.3,2.6
	c-0.1-0.1-0.2-0.1-0.3-0.1c-0.1,0-0.3,0-0.5,0.2C9,76.3,8.8,75.3,8.8,74.1z M9,89c0-1.2,0.1-2.2,0.3-2.8c0.1,0.1,0.3,0.1,0.4,0.1
	c0.1,0,0.2,0,0.3-0.1c0.2,0.6,0.3,1.6,0.3,2.8c0,0.6,0,1.2-0.1,1.6c-0.2-0.3-0.4-0.3-0.5-0.3c-0.1,0-0.3,0-0.5,0.3
	C9,90.2,9,89.6,9,89z M8.7,102.2c0-1.1,0.1-2,0.3-2.6c0.2,0.3,0.4,0.3,0.5,0.3c0.1,0,0.2,0,0.4-0.1c0.1,0.6,0.2,1.4,0.2,2.4
	c0,1.1-0.1,2-0.3,2.6c-0.1-0.1-0.2-0.1-0.3-0.1c-0.1,0-0.3,0-0.5,0.2C8.9,104.4,8.7,103.4,8.7,102.2z M8.9,117.1
	c0-1.2,0.1-2.2,0.3-2.8c0.1,0.1,0.3,0.1,0.4,0.1c0.1,0,0.2,0,0.3-0.1c0.2,0.6,0.3,1.6,0.3,2.8c0,1-0.1,1.8-0.2,2.4
	c-0.1-0.1-0.3-0.1-0.4-0.1c-0.1,0-0.3,0-0.4,0.2C9,119,8.9,118.2,8.9,117.1z M8.7,131.3c0-1.1,0.1-2,0.3-2.6
	c0.2,0.3,0.4,0.3,0.5,0.3c0.1,0,0.2,0,0.4-0.1c0.1,0.6,0.2,1.4,0.2,2.4c0,1.1-0.1,2-0.3,2.6c-0.1-0.1-0.2-0.1-0.3-0.1
	c-0.1,0-0.3,0-0.5,0.2C8.9,133.5,8.7,132.5,8.7,131.3z M8.9,146.2c0-1.2,0.1-2.2,0.3-2.8c0.1,0.1,0.3,0.1,0.4,0.1
	c0.1,0,0.2,0,0.3-0.1c0.2,0.6,0.3,1.6,0.3,2.8c0,0.9-0.1,1.7-0.2,2.3c-0.1,0-0.1,0-0.2,0c0,0,0,0-0.1,0c0,0-0.1,0-0.1,0
	c-0.1,0-0.3,0-0.5,0.2C9,148.1,8.9,147.2,8.9,146.2z M8.9,246.6c0-1.1,0.1-2,0.3-2.6c0.2,0.3,0.4,0.3,0.5,0.3c0.1,0,0.2,0,0.4-0.1
	c0.1,0.6,0.2,1.4,0.2,2.4c0,1.1-0.1,2-0.3,2.6c-0.1-0.1-0.2-0.1-0.3-0.1c-0.1,0-0.3,0-0.5,0.2C9,248.7,8.9,247.8,8.9,246.6z
	 M9,261.5c0-1.2,0.1-2.2,0.3-2.8c0.1,0.1,0.3,0.1,0.4,0.1c0.1,0,0.2,0,0.3-0.1c0.2,0.6,0.3,1.6,0.3,2.8c0,0.6,0,1.2-0.1,1.6
	c-0.2-0.3-0.4-0.3-0.5-0.3c-0.1,0-0.3,0-0.5,0.3C9.1,262.6,9,262.1,9,261.5z M8.8,274.7c0-1.1,0.1-2,0.3-2.6
	c0.2,0.3,0.4,0.3,0.5,0.3c0.1,0,0.2,0,0.4-0.1c0.1,0.6,0.2,1.4,0.2,2.4c0,1.1-0.1,2-0.3,2.6c-0.1-0.1-0.2-0.1-0.3-0.1
	c-0.1,0-0.3,0-0.5,0.2C9,276.8,8.8,275.9,8.8,274.7z M9,289.6c0-1.2,0.1-2.2,0.3-2.8c0.1,0.1,0.3,0.1,0.4,0.1c0.1,0,0.2,0,0.3-0.1
	c0.2,0.6,0.3,1.6,0.3,2.8c0,1-0.1,1.8-0.2,2.4c-0.1-0.1-0.3-0.1-0.4-0.1c-0.1,0-0.3,0-0.4,0.2C9.1,291.4,9,290.6,9,289.6z
	 M8.8,303.8c0-1.1,0.1-2,0.3-2.6c0.2,0.3,0.4,0.3,0.5,0.3c0.1,0,0.2,0,0.4-0.1c0.1,0.6,0.2,1.4,0.2,2.4c0,1.1-0.1,2-0.3,2.6
	c-0.1-0.1-0.2-0.1-0.3-0.1c-0.1,0-0.3,0-0.5,0.2C9,305.9,8.8,305,8.8,303.8z M8.7,334.8c0-2.4,0.6-3.6,0.7-3.7
	c0.2,0.1,0.8,1.4,0.8,3.7c0,1.8-0.3,3-0.6,3.4l-0.4-0.1C9,337.6,8.7,336.5,8.7,334.8z M4.5,358.6l-1.7,7.4l-0.5,0.3L4.5,358.6z"/>
<path d="M252.8,376.7l-0.1-1l-0.1,0l0.1-11.6l-0.5,0l0.2-0.5l-1.1-0.5l-4.3-24.1c0.7-0.9,0.9-2.9,0.9-4.3
	c0-1.3-0.2-3.3-0.9-4.2c0.3-0.6,0.5-1.8,0.5-4.3c0-1.7-0.1-2.9-0.3-3.6c0.7-1.2,0.7-3.7,0.7-4c0-0.4,0-2.8-0.7-4
	c0.1-0.7,0.2-1.8,0.2-3.5c0-1.6-0.1-2.7-0.2-3.4c0.6-1.3,0.7-3.6,0.7-4c0-0.3,0-2.6-0.6-3.9c0.1-0.7,0.2-1.7,0.2-3.2
	c0-1.5-0.1-2.5-0.2-3.2c0.6-1.3,0.6-3.5,0.6-3.9c0-0.4,0-2.8-0.7-4c0.1-0.7,0.2-1.8,0.2-3.5c0-1.6-0.1-2.7-0.2-3.4
	c0.6-1.3,0.7-3.6,0.7-4c0-0.3,0-2.6-0.6-3.9c0.1-0.7,0.2-1.7,0.2-3.2c0-1,0-1.7-0.1-2.3c0.6-1.3,0.6-3.5,0.6-3.8c0-0.4,0-2.8-0.7-4
	c0.1-0.7,0.2-1.8,0.2-3.5c0-1.6-0.1-2.7-0.2-3.4c0.6-1.3,0.7-3.6,0.7-4c0-0.3,0-2.6-0.6-3.9c0.1-0.7,0.2-1.7,0.2-3.2
	c0-1.5-0.1-2.5-0.2-3.2c0.6-1.3,0.6-3.5,0.6-3.8c0-0.4,0-2.8-0.7-4c0.1-0.7,0.2-1.8,0.2-3.5c0-1.6-0.1-2.7-0.2-3.4
	c0.6-1.3,0.7-3.6,0.7-4c0-0.3,0-2.6-0.6-3.9c0.1-0.7,0.2-1.7,0.2-3.2c0-1.5-0.1-2.5-0.2-3.2c0.6-1.3,0.6-3.5,0.6-3.9
	c0-0.4,0-2.8-0.7-4c0.1-0.7,0.2-1.8,0.2-3.5c0-1.6-0.1-2.7-0.2-3.4c0.6-1.3,0.7-3.6,0.7-4c0-0.3,0-2.6-0.6-3.9
	c0.1-0.7,0.2-1.7,0.2-3.2c0-1,0-1.7-0.1-2.3c0.6-1.3,0.6-3.5,0.6-3.8c0-0.4,0-2.8-0.7-4c0.1-0.7,0.2-1.8,0.2-3.5
	c0-1.6-0.1-2.7-0.2-3.4c0.6-1.3,0.7-3.6,0.7-4c0-0.3,0-2.6-0.6-3.9c0.1-0.7,0.2-1.7,0.2-3.2c0-1.7-0.1-2.8-0.2-3.5
	c0.5-1.3,0.5-3.3,0.5-3.6c0-0.4,0-2.8-0.7-4c0.1-0.7,0.2-1.8,0.2-3.5c0-1.6-0.1-2.7-0.2-3.4c0.6-1.3,0.7-3.6,0.7-4
	c0-0.3,0-2.6-0.6-3.9c0.1-0.7,0.2-1.7,0.2-3.2c0-1.5-0.1-2.5-0.2-3.2c0.6-1.3,0.6-3.5,0.6-3.9c0-0.4,0-2.8-0.7-4
	c0.1-0.7,0.2-1.8,0.2-3.5c0-1.6-0.1-2.7-0.2-3.4c0.6-1.3,0.7-3.6,0.7-4c0-0.3,0-2.6-0.6-3.9c0.1-0.7,0.2-1.7,0.2-3.2
	c0-1,0-1.7-0.1-2.3c0.6-1.3,0.6-3.5,0.6-3.8c0-0.4,0-2.8-0.7-4c0.1-0.7,0.2-1.8,0.2-3.5c0-1.6-0.1-2.7-0.2-3.4
	c0.6-1.3,0.7-3.6,0.7-4c0-0.3,0-2.6-0.6-3.9c0.1-0.7,0.2-1.7,0.2-3.2c0-0.5,0-0.9,0-1.3c0.6-1.3,0.6-3.5,0.6-3.9c0-0.4,0-2.8-0.7-4
	c0.1-0.7,0.2-1.8,0.2-3.5c0-1.6-0.1-2.7-0.2-3.4c0.6-1.3,0.7-3.6,0.7-4c0-0.3,0-2.6-0.6-3.9c0.1-0.7,0.2-1.7,0.2-3.2
	c0-1.5-0.1-2.5-0.2-3.2c0.6-1.3,0.6-3.5,0.6-3.9c0-0.4,0-2.8-0.7-4c0.1-0.7,0.2-1.8,0.2-3.5c0-1.6-0.1-2.7-0.2-3.4
	c0.6-1.3,0.7-3.6,0.7-4c0-0.3,0-2.6-0.6-3.9c0.1-0.7,0.2-1.7,0.2-3.2c0-1,0-1.7-0.1-2.3c0.6-1.3,0.6-3.5,0.6-3.8
	c0-0.5,0-4.7-1.6-4.7s-1.6,4.2-1.6,4.7c0,0.3,0,2.5,0.6,3.7c-0.1,0.6-0.1,1.4-0.1,2.4c0,1.2,0.1,2.2,0.1,2.8
	c-0.8,1.2-0.8,3.9-0.8,4.2c0,0.4,0,3.1,0.8,4.3c-0.1,0.7-0.2,1.7-0.2,3.1c0,1.6,0.1,2.7,0.2,3.4c-0.7,1.2-0.8,3.8-0.8,4.1
	c0,0.4,0,2.8,0.7,4c-0.1,0.7-0.2,1.7-0.2,3c0,1.2,0.1,2.2,0.1,2.8c-0.8,1.2-0.8,3.9-0.8,4.2c0,0.4,0,3.1,0.8,4.3
	c-0.1,0.7-0.2,1.7-0.2,3.1c0,1.6,0.1,2.7,0.2,3.4c-0.7,1.2-0.8,3.8-0.8,4.1c0,0.3,0,2.1,0.4,3.4c0,0.5,0,1.1,0,1.8
	c0,1.2,0.1,2.2,0.1,2.8c-0.8,1.2-0.8,3.9-0.8,4.2c0,0.4,0,3.1,0.8,4.3c-0.1,0.7-0.2,1.7-0.2,3.1c0,1.6,0.1,2.7,0.2,3.4
	c-0.7,1.2-0.8,3.8-0.8,4.1c0,0.3,0,2.5,0.6,3.7c-0.1,0.6-0.1,1.4-0.1,2.4c0,1.2,0.1,2.2,0.1,2.8c-0.8,1.2-0.8,3.9-0.8,4.2
	c0,0.4,0,3.1,0.8,4.3c-0.1,0.7-0.2,1.7-0.2,3.1c0,1.6,0.1,2.7,0.2,3.4c-0.7,1.2-0.8,3.8-0.8,4.1c0,0.4,0,2.8,0.7,4
	c-0.1,0.7-0.2,1.7-0.2,3c0,1.2,0.1,2.2,0.1,2.8c-0.8,1.2-0.8,3.9-0.8,4.2c0,0.4,0,3.1,0.8,4.3c-0.1,0.7-0.2,1.7-0.2,3.1
	c0,1.6,0.1,2.7,0.2,3.4c-0.7,1.2-0.8,3.8-0.8,4.1c0,0.4,0,2.9,0.7,4.1c-0.1,0.7-0.2,1.7-0.2,3c0,1.2,0.1,2.2,0.1,2.8
	c-0.8,1.2-0.8,3.9-0.8,4.2c0,0.4,0,3.1,0.8,4.3c-0.1,0.7-0.2,1.7-0.2,3.1c0,1.6,0.1,2.7,0.2,3.4c-0.7,1.2-0.8,3.8-0.8,4.1
	c0,0.3,0,2.5,0.6,3.7c-0.1,0.6-0.1,1.4-0.1,2.4c0,1.2,0.1,2.2,0.1,2.8c-0.8,1.2-0.8,3.9-0.8,4.2c0,0.4,0,3.1,0.8,4.3
	c-0.1,0.7-0.2,1.7-0.2,3.1c0,1.6,0.1,2.7,0.2,3.4c-0.7,1.2-0.8,3.8-0.8,4.1c0,0.4,0,2.8,0.7,4c-0.1,0.7-0.2,1.7-0.2,3
	c0,1.2,0.1,2.2,0.1,2.8c-0.8,1.2-0.8,3.9-0.8,4.2c0,0.4,0,3.1,0.8,4.3c-0.1,0.7-0.2,1.7-0.2,3.1c0,1.6,0.1,2.7,0.2,3.4
	c-0.7,1.2-0.8,3.8-0.8,4.1c0,0.4,0,3.2,0.9,4.3c-0.1,0.7-0.1,1.6-0.1,2.8c0,1.2,0.1,2.2,0.1,2.8c-0.8,1.2-0.8,3.9-0.8,4.2
	c0,0.4,0,3.1,0.8,4.3c-0.1,0.7-0.2,1.7-0.2,3.1c0,1.6,0.1,2.7,0.2,3.4c-0.7,1.2-0.8,3.8-0.8,4.1c0,0.3,0,2.5,0.6,3.7
	c-0.1,0.6-0.1,1.4-0.1,2.4c0,1.2,0.1,2.2,0.1,2.8c-0.8,1.2-0.8,3.9-0.8,4.2c0,0.4,0,3.1,0.8,4.3c-0.1,0.7-0.2,1.7-0.2,3.1
	c0,1.6,0.1,2.7,0.2,3.4c-0.7,1.2-0.8,3.8-0.8,4.1c0,0.4,0,2.8,0.7,4c-0.1,0.7-0.2,1.7-0.2,3c0,1.2,0.1,2.2,0.1,2.8
	c-0.8,1.2-0.8,3.9-0.8,4.2c0,0.4,0,3.1,0.8,4.3c-0.1,0.7-0.2,1.7-0.2,3.1c0,1.6,0.1,2.7,0.2,3.4c-0.7,1.2-0.8,3.8-0.8,4.1
	c0,0.4,0,3,0.8,4.1c-0.1,0.7-0.2,1.8-0.2,3.5c0,2.2,0.2,3.3,0.4,4c-0.9,0.7-1.2,3-1.2,4.5c0,1.5,0.3,3.9,1.2,4.5l-3.6,19.9l-0.4-0.2
	l-0.2,0.5l-0.1-0.5l-8.6,1.2l-58.7,1l-1-1l-0.3,0.4l0-0.5l-5.4,0.2l-0.7-21.2c0.8-0.8,1-3,1-4.4c0-1.3-0.2-3.3-0.9-4.2
	c0.3-0.6,0.5-1.8,0.5-4.3c0-1.7-0.1-2.9-0.3-3.6c0.7-1.2,0.7-3.7,0.7-4c0-0.4,0-2.8-0.7-4c0.1-0.7,0.2-1.8,0.2-3.5
	c0-1.6-0.1-2.7-0.2-3.4c0.6-1.3,0.7-3.6,0.7-4c0-0.3,0-2.6-0.6-3.9c0.1-0.7,0.2-1.7,0.2-3.2c0-1.5-0.1-2.5-0.2-3.2
	c0.6-1.3,0.6-3.5,0.6-3.9c0-0.4,0-2.8-0.7-4c0.1-0.7,0.2-1.8,0.2-3.5c0-1.6-0.1-2.7-0.2-3.4c0.6-1.3,0.7-3.6,0.7-4
	c0-0.3,0-2.6-0.6-3.9c0.1-0.7,0.2-1.7,0.2-3.2c0-1,0-1.7-0.1-2.3c0.6-1.3,0.6-3.5,0.6-3.8c0-0.4,0-2.8-0.7-4
	c0.1-0.7,0.2-1.8,0.2-3.5c0-1.6-0.1-2.7-0.2-3.4c0.6-1.3,0.7-3.6,0.7-4c0-0.3,0-2.6-0.6-3.9c0.1-0.7,0.2-1.7,0.2-3.2
	c0-1.5-0.1-2.5-0.2-3.2c0.6-1.3,0.6-3.5,0.6-3.8c0-0.4,0-2.8-0.7-4c0.1-0.7,0.2-1.8,0.2-3.5c0-1.6-0.1-2.7-0.2-3.4
	c0.6-1.3,0.7-3.6,0.7-4c0-0.3,0-2.6-0.6-3.9c0.1-0.7,0.2-1.7,0.2-3.2c0-1.5-0.1-2.5-0.2-3.2c0.6-1.3,0.6-3.5,0.6-3.9
	c0-0.4,0-2.8-0.7-4c0.1-0.7,0.2-1.8,0.2-3.5c0-1.6-0.1-2.7-0.2-3.4c0.6-1.3,0.7-3.6,0.7-4c0-0.3,0-2.6-0.6-3.9
	c0.1-0.7,0.2-1.7,0.2-3.2c0-1,0-1.7-0.1-2.3c0.6-1.3,0.6-3.5,0.6-3.8c0-0.4,0-2.8-0.7-4c0.1-0.7,0.2-1.8,0.2-3.5
	c0-1.6-0.1-2.7-0.2-3.4c0.6-1.3,0.7-3.6,0.7-4c0-0.3,0-2.6-0.6-3.9c0.1-0.7,0.2-1.7,0.2-3.2c0-1.7-0.1-2.8-0.2-3.5
	c0.5-1.3,0.5-3.3,0.5-3.6c0-0.4,0-2.8-0.7-4c0.1-0.7,0.2-1.8,0.2-3.5c0-1.6-0.1-2.7-0.2-3.4c0.6-1.3,0.7-3.6,0.7-4
	c0-0.3,0-2.6-0.6-3.9c0.1-0.7,0.2-1.7,0.2-3.2c0-1.5-0.1-2.5-0.2-3.2c0.6-1.3,0.6-3.5,0.6-3.9c0-0.4,0-2.8-0.7-4
	c0.1-0.7,0.2-1.8,0.2-3.5c0-1.6-0.1-2.7-0.2-3.4c0.6-1.3,0.7-3.6,0.7-4c0-0.3,0-2.6-0.6-3.9c0.1-0.7,0.2-1.7,0.2-3.2
	c0-1,0-1.7-0.1-2.3c0.6-1.3,0.6-3.5,0.6-3.8c0-0.4,0-2.8-0.7-4c0.1-0.7,0.2-1.8,0.2-3.5c0-1.6-0.1-2.7-0.2-3.4
	c0.6-1.3,0.7-3.6,0.7-4c0-0.3,0-2.6-0.6-3.9c0.1-0.7,0.2-1.7,0.2-3.2c0-0.5,0-0.9,0-1.3c0.6-1.3,0.6-3.5,0.6-3.9c0-0.4,0-2.8-0.7-4
	c0.1-0.7,0.2-1.8,0.2-3.5c0-1.6-0.1-2.7-0.2-3.4c0.6-1.3,0.7-3.6,0.7-4c0-0.3,0-2.6-0.6-3.9c0.1-0.7,0.2-1.7,0.2-3.2
	c0-1.5-0.1-2.5-0.2-3.2c0.6-1.3,0.6-3.5,0.6-3.9c0-0.4,0-2.8-0.7-4c0.1-0.7,0.2-1.8,0.2-3.5c0-1.6-0.1-2.7-0.2-3.4
	c0.6-1.3,0.7-3.6,0.7-4c0-0.3,0-2.6-0.6-3.9c0.1-0.7,0.2-1.7,0.2-3.2c0-1,0-1.7-0.1-2.3c0.6-1.3,0.6-3.5,0.6-3.8
	c0-0.5,0-4.7-1.6-4.7s-1.6,4.2-1.6,4.7c0,0.3,0,2.5,0.6,3.7c-0.1,0.6-0.1,1.4-0.1,2.4c0,1.2,0.1,2.2,0.1,2.8
	c-0.8,1.2-0.8,3.9-0.8,4.2c0,0.4,0,3.1,0.8,4.3c-0.1,0.7-0.2,1.7-0.2,3.1c0,1.6,0.1,2.7,0.2,3.4c-0.7,1.2-0.8,3.8-0.8,4.1
	c0,0.4,0,2.8,0.7,4c-0.1,0.7-0.2,1.7-0.2,3c0,1.2,0.1,2.2,0.1,2.8c-0.8,1.2-0.8,3.9-0.8,4.2c0,0.4,0,3.1,0.8,4.3
	C165,52,165,53,165,54.4c0,1.6,0.1,2.7,0.2,3.4c-0.7,1.2-0.8,3.8-0.8,4.1c0,0.3,0,2.1,0.4,3.4c0,0.5,0,1.1,0,1.8
	c0,1.2,0.1,2.2,0.1,2.8c-0.8,1.2-0.8,3.9-0.8,4.2c0,0.4,0,3.1,0.8,4.3c-0.1,0.7-0.2,1.7-0.2,3.1c0,1.6,0.1,2.7,0.2,3.4
	c-0.7,1.2-0.8,3.8-0.8,4.1c0,0.3,0,2.5,0.6,3.7c-0.1,0.6-0.1,1.4-0.1,2.4c0,1.2,0.1,2.2,0.1,2.8c-0.8,1.2-0.8,3.9-0.8,4.2
	c0,0.4,0,3.1,0.8,4.3c-0.1,0.7-0.2,1.7-0.2,3.1c0,1.6,0.1,2.7,0.2,3.4c-0.7,1.2-0.8,3.8-0.8,4.1c0,0.4,0,2.8,0.7,4
	c-0.1,0.7-0.2,1.7-0.2,3c0,1.2,0.1,2.2,0.1,2.8c-0.8,1.2-0.8,3.9-0.8,4.2c0,0.4,0,3.1,0.8,4.3c-0.1,0.7-0.2,1.7-0.2,3.1
	c0,1.6,0.1,2.7,0.2,3.4c-0.7,1.2-0.8,3.8-0.8,4.1c0,0.4,0,2.9,0.7,4.1c-0.1,0.7-0.2,1.7-0.2,3c0,1.2,0.1,2.2,0.1,2.8
	c-0.8,1.2-0.8,3.9-0.8,4.2c0,0.4,0,3.1,0.8,4.3c-0.1,0.7-0.2,1.7-0.2,3.1c0,1.6,0.1,2.7,0.2,3.4c-0.7,1.2-0.8,3.8-0.8,4.1
	c0,0.3,0,2.5,0.6,3.7c-0.1,0.6-0.1,1.4-0.1,2.4c0,1.2,0.1,2.2,0.1,2.8c-0.8,1.2-0.8,3.9-0.8,4.2c0,0.4,0,3.1,0.8,4.3
	c-0.1,0.7-0.2,1.7-0.2,3.1c0,1.6,0.1,2.7,0.2,3.4c-0.7,1.2-0.8,3.8-0.8,4.1c0,0.4,0,2.8,0.7,4c-0.1,0.7-0.2,1.7-0.2,3
	c0,1.2,0.1,2.2,0.1,2.8c-0.8,1.2-0.8,3.9-0.8,4.2c0,0.4,0,3.1,0.8,4.3c-0.1,0.7-0.2,1.7-0.2,3.1c0,1.6,0.1,2.7,0.2,3.4
	c-0.7,1.2-0.8,3.8-0.8,4.1c0,0.4,0,3.2,0.9,4.3c-0.1,0.7-0.1,1.6-0.1,2.8c0,1.2,0.1,2.2,0.1,2.8c-0.8,1.2-0.8,3.9-0.8,4.2
	c0,0.4,0,3.1,0.8,4.3c-0.1,0.7-0.2,1.7-0.2,3.1c0,1.6,0.1,2.7,0.2,3.4c-0.7,1.2-0.8,3.8-0.8,4.1c0,0.3,0,2.5,0.6,3.7
	c-0.1,0.6-0.1,1.4-0.1,2.4c0,1.2,0.1,2.2,0.1,2.8c-0.8,1.2-0.8,3.9-0.8,4.2c0,0.4,0,3.1,0.8,4.3c-0.1,0.7-0.2,1.7-0.2,3.1
	c0,1.6,0.1,2.7,0.2,3.4c-0.7,1.2-0.8,3.8-0.8,4.1c0,0.4,0,2.8,0.7,4c-0.1,0.7-0.2,1.7-0.2,3c0,1.2,0.1,2.2,0.1,2.8
	c-0.8,1.2-0.8,3.9-0.8,4.2c0,0.4,0,3.1,0.8,4.3c-0.1,0.7-0.2,1.7-0.2,3.1c0,1.6,0.1,2.7,0.2,3.4c-0.7,1.2-0.8,3.8-0.8,4.1
	c0,0.4,0,3,0.8,4.1c-0.1,0.7-0.2,1.8-0.2,3.5c0,2.2,0.2,3.3,0.4,4c-0.9,0.7-1.2,3-1.2,4.5c0,1.5,0.3,3.7,1.1,4.5l-5.9,21.4l-0.6,0
	l0,0.2l-0.1-0.1l-0.3,0.4l-0.5,0l-0.3,11l0.5,0l-0.4,0.3l9.1,9.4l0.4-0.3l0,0.5L252.8,376.7z M165.5,360.4l-4,0.1l4-17.8V360.4z
	 M165.5,361.4v5.3l-4.5-3.8l0.3-1.3L165.5,361.4z M166.5,367.3l0,0.2l0,0V367.3z M160.1,362.1L160,362l0.1-0.4l0.2,0L160.1,362.1z
	 M166.9,369.2l-0.4,11.1l-8.1-8.4l0.3-9.7L166.9,369.2z M167.9,369.5l12.3-0.5l-0.5,11.3l-12.2,0.8L167.9,369.5z M238.2,376.6
	l-57.5,3.6l0.5-11.3l56.9-2.1V376.6z M239.2,376.5v-9.8l12.5-2l-0.1,11.1L239.2,376.5z M246.3,342.1l2.5,20l-5-2.1L246.3,342.1z
	 M249.9,362.5l-0.6-4.9l0.9,5.1L249.9,362.5z M246.3,315.9c0.1,0,0.2,0,0.3-0.1c0.2,0.6,0.3,1.6,0.3,2.8c0,1.3-0.1,2.2-0.3,2.8
	c-0.1,0-0.2-0.1-0.3-0.1c-0.1,0-0.2,0-0.3,0.1c-0.2-0.6-0.3-1.6-0.3-2.9c0-1.2,0.1-2.2,0.3-2.8C246.1,315.9,246.3,315.9,246.3,315.9
	z M246.1,172.5c0.1,0,0.2,0,0.2,0c0,0,0,0,0.1,0c0,0,0.1,0,0.1,0c0,0,0.1,0,0.1,0c0.2,0.6,0.3,1.5,0.3,2.7c0,0.6,0,1-0.1,1.5
	c-0.2-0.2-0.3-0.2-0.4-0.2c0,0,0,0-0.1,0c0,0-0.1,0-0.1,0c-0.1,0-0.2,0-0.4,0.1c0-0.4-0.1-0.9-0.1-1.4
	C245.8,174.1,245.9,173.1,246.1,172.5z M246,200.6c0.1,0,0.2,0,0.2,0c0,0,0,0,0.1,0c0,0,0.1,0,0.1,0c0,0,0.1,0,0.1,0
	c0.2,0.6,0.3,1.5,0.3,2.7c0,0.9-0.1,1.7-0.2,2.3c-0.1,0-0.2,0-0.2,0c0,0,0,0-0.1,0c0,0-0.1,0-0.1,0c-0.1,0-0.2,0-0.3,0.1
	c-0.1-0.6-0.2-1.4-0.2-2.4C245.7,202.2,245.9,201.3,246,200.6z M246,229.7c0.1,0,0.2,0,0.2,0c0,0,0,0,0.1,0c0,0,0.1,0,0.1,0
	c0,0,0.1,0,0.1,0c0.2,0.6,0.3,1.5,0.3,2.7c0,0.9-0.1,1.7-0.2,2.3c-0.1,0-0.1,0-0.2,0c-0.1,0-0.3,0-0.5,0.2c-0.1-0.6-0.2-1.4-0.2-2.5
	C245.7,231.2,245.9,230.3,246,229.7z M245.9,4.7c0-2,0.4-3.3,0.6-3.6c0.2,0.4,0.6,1.6,0.6,3.6c0,0.6,0,1.2-0.1,1.6
	C246.8,6,246.6,6,246.5,6c-0.1,0-0.3,0-0.5,0.3C245.9,5.8,245.9,5.3,245.9,4.7z M245.7,17.9c0-1.1,0.1-2,0.3-2.6
	c0.2,0.3,0.4,0.3,0.5,0.3c0.1,0,0.2,0,0.4-0.1c0.1,0.6,0.2,1.4,0.2,2.4c0,1.1-0.1,2-0.3,2.6c-0.1-0.1-0.2-0.1-0.3-0.1
	c-0.1,0-0.3,0-0.5,0.3C245.8,20.1,245.7,19.1,245.7,17.9z M245.8,32.8c0-1.2,0.1-2.2,0.3-2.8c0.1,0.1,0.3,0.1,0.4,0.1
	c0.1,0,0.2,0,0.3-0.1c0.2,0.6,0.3,1.6,0.3,2.8c0,1-0.1,1.8-0.2,2.4c-0.1-0.1-0.3-0.1-0.4-0.1c-0.1,0-0.3,0-0.4,0.2
	C245.9,34.7,245.8,33.8,245.8,32.8z M245.7,47c0-1.1,0.1-2,0.3-2.6c0.2,0.3,0.4,0.3,0.5,0.3c0.1,0,0.2,0,0.4-0.1
	C247,45.2,247,46,247,47c0,1.1-0.1,2-0.3,2.6c-0.1-0.1-0.2-0.1-0.3-0.1c-0.1,0-0.3,0-0.5,0.3C245.8,49.1,245.7,48.2,245.7,47z
	 M245.8,61.9c0-1.2,0.1-2.2,0.3-2.8c0.1,0.1,0.3,0.1,0.4,0.1c0.1,0,0.2,0,0.3-0.1c0.2,0.6,0.3,1.6,0.3,2.8c0,0.4,0,0.7,0,1
	c-0.2-0.6-0.5-0.6-0.7-0.6c-0.1,0-0.3,0-0.5,0.3C245.8,62.3,245.8,62.1,245.8,61.9z M245.5,74.1c0-1.1,0.1-2,0.3-2.6
	c0.2,0.3,0.4,0.3,0.5,0.3c0.1,0,0.2,0,0.4-0.1c0.1,0.6,0.2,1.4,0.2,2.4c0,1.1-0.1,2-0.3,2.6c-0.1-0.1-0.2-0.1-0.3-0.1
	c-0.1,0-0.3,0-0.5,0.3C245.7,76.3,245.5,75.3,245.5,74.1z M245.7,89c0-1.2,0.1-2.2,0.3-2.8c0.1,0.1,0.3,0.1,0.4,0.1
	c0.1,0,0.2,0,0.3-0.1c0.2,0.6,0.3,1.6,0.3,2.8c0,0.6,0,1.2-0.1,1.6c-0.2-0.3-0.4-0.3-0.5-0.3c-0.1,0-0.3,0-0.5,0.3
	C245.7,90.2,245.7,89.6,245.7,89z M245.5,102.2c0-1.1,0.1-2,0.3-2.6c0.2,0.3,0.4,0.3,0.5,0.3c0.1,0,0.2,0,0.4-0.1
	c0.1,0.6,0.2,1.4,0.2,2.4c0,1.1-0.1,2-0.3,2.6c-0.1-0.1-0.2-0.1-0.3-0.1c-0.1,0-0.3,0-0.5,0.2C245.6,104.4,245.5,103.4,245.5,102.2z
	 M245.6,117.1c0-1.2,0.1-2.2,0.3-2.8c0.1,0.1,0.3,0.1,0.4,0.1c0.1,0,0.2,0,0.3-0.1c0.2,0.6,0.3,1.6,0.3,2.8c0,1-0.1,1.8-0.2,2.4
	c-0.1-0.1-0.3-0.1-0.4-0.1c-0.1,0-0.3,0-0.4,0.2C245.7,119,245.6,118.2,245.6,117.1z M245.5,131.3c0-1.1,0.1-2,0.3-2.6
	c0.2,0.3,0.4,0.3,0.5,0.3c0.1,0,0.2,0,0.4-0.1c0.1,0.6,0.2,1.4,0.2,2.4c0,1.1-0.1,2-0.3,2.6c-0.1-0.1-0.2-0.1-0.3-0.1
	c-0.1,0-0.3,0-0.5,0.2C245.6,133.5,245.5,132.5,245.5,131.3z M245.6,146.2c0-1.2,0.1-2.2,0.3-2.8c0.1,0.1,0.3,0.1,0.4,0.1
	c0.1,0,0.2,0,0.3-0.1c0.2,0.6,0.3,1.6,0.3,2.8c0,0.9-0.1,1.7-0.2,2.3c-0.1,0-0.1,0-0.2,0c0,0,0,0-0.1,0c0,0-0.1,0-0.1,0
	c-0.1,0-0.3,0-0.5,0.2C245.7,148.1,245.6,147.2,245.6,146.2z M245.6,246.6c0-1.1,0.1-2,0.3-2.6c0.2,0.3,0.4,0.3,0.5,0.3
	c0.1,0,0.2,0,0.4-0.1c0.1,0.6,0.2,1.4,0.2,2.4c0,1.1-0.1,2-0.3,2.6c-0.1-0.1-0.2-0.1-0.3-0.1c-0.1,0-0.3,0-0.5,0.2
	C245.8,248.7,245.6,247.8,245.6,246.6z M245.8,261.5c0-1.2,0.1-2.2,0.3-2.8c0.1,0.1,0.3,0.1,0.4,0.1c0.1,0,0.2,0,0.3-0.1
	c0.2,0.6,0.3,1.6,0.3,2.8c0,0.6,0,1.2-0.1,1.6c-0.2-0.3-0.4-0.3-0.5-0.3c-0.1,0-0.3,0-0.5,0.3C245.8,262.6,245.8,262.1,245.8,261.5z
	 M245.6,274.7c0-1.1,0.1-2,0.3-2.6c0.2,0.3,0.4,0.3,0.5,0.3c0.1,0,0.2,0,0.4-0.1c0.1,0.6,0.2,1.4,0.2,2.4c0,1.1-0.1,2-0.3,2.6
	c-0.1-0.1-0.2-0.1-0.3-0.1c-0.1,0-0.3,0-0.5,0.2C245.7,276.8,245.6,275.9,245.6,274.7z M245.7,289.6c0-1.2,0.1-2.2,0.3-2.8
	c0.1,0.1,0.3,0.1,0.4,0.1c0.1,0,0.2,0,0.3-0.1c0.2,0.6,0.3,1.6,0.3,2.8c0,1-0.1,1.8-0.2,2.4c-0.1-0.1-0.3-0.1-0.4-0.1
	c-0.1,0-0.3,0-0.4,0.2C245.8,291.4,245.7,290.6,245.7,289.6z M245.6,303.8c0-1.1,0.1-2,0.3-2.6c0.2,0.3,0.4,0.3,0.5,0.3
	c0.1,0,0.2,0,0.4-0.1c0.1,0.6,0.2,1.4,0.2,2.4c0,1.1-0.1,2-0.3,2.6c-0.1-0.1-0.2-0.1-0.3-0.1c-0.1,0-0.3,0-0.5,0.2
	C245.7,305.9,245.6,305,245.6,303.8z M245.4,334.8c0-2.4,0.6-3.6,0.7-3.7c0.2,0.1,0.8,1.4,0.8,3.7c0,1.8-0.3,3-0.6,3.4l-0.3-0.1
	C245.7,337.6,245.4,336.5,245.4,334.8z M250.4,363.9l-11.6,1.9l-4.9-4.6l7.5-1.1L250.4,363.9z M232.6,361.2l4.8,4.5l-56.5,2.1
	l-5.9-5.6L232.6,361.2z M172.5,361.2l7.1,6.8l-11.9,0.5l-0.1-0.1l-0.2-7.1L172.5,361.2z M166,315.9c0.1,0,0.2,0,0.3-0.1
	c0.2,0.6,0.3,1.6,0.3,2.8c0,1.3-0.1,2.2-0.3,2.8c-0.1,0-0.2-0.1-0.3-0.1c-0.1,0-0.2,0-0.3,0.1c-0.2-0.6-0.3-1.6-0.3-2.9
	c0-1.2,0.1-2.2,0.3-2.8C165.8,315.9,165.9,315.9,166,315.9z M165.7,172.5c0.1,0,0.2,0,0.2,0c0,0,0,0,0.1,0c0,0,0.1,0,0.1,0
	c0,0,0.1,0,0.1,0c0.2,0.6,0.3,1.5,0.3,2.7c0,0.6,0,1-0.1,1.5c-0.2-0.2-0.3-0.2-0.4-0.2c0,0,0,0-0.1,0c0,0-0.1,0-0.1,0
	c-0.1,0-0.2,0-0.4,0.1c0-0.4-0.1-0.9-0.1-1.4C165.4,174.1,165.5,173.1,165.7,172.5z M165.8,186.2
	C165.9,186.2,165.9,186.2,165.8,186.2c0.1,0,0.1,0,0.2,0c0.1,0,0.1,0,0.2,0c0.1,0.6,0.2,1.4,0.2,2.3c0,1.1-0.1,1.9-0.2,2.6
	c-0.1,0-0.1,0-0.2,0c0,0,0,0-0.1,0c0,0-0.1,0-0.1,0c-0.1,0-0.2,0-0.4,0.1c-0.2-0.7-0.3-1.6-0.3-2.7c0-1,0.1-1.8,0.2-2.4
	C165.6,186.2,165.7,186.2,165.8,186.2z M165.6,200.6c0.1,0,0.2,0,0.2,0c0,0,0,0,0.1,0c0,0,0.1,0,0.1,0c0,0,0.1,0,0.1,0
	c0.2,0.6,0.3,1.5,0.3,2.7c0,0.9-0.1,1.7-0.2,2.3c-0.1,0-0.2,0-0.2,0c0,0,0,0-0.1,0c0,0-0.1,0-0.1,0c-0.1,0-0.2,0-0.3,0.1
	c-0.1-0.6-0.2-1.4-0.2-2.4C165.3,202.2,165.5,201.3,165.6,200.6z M165.6,229.7c0.1,0,0.2,0,0.2,0c0,0,0,0,0.1,0c0,0,0.1,0,0.1,0
	c0,0,0.1,0,0.1,0c0.2,0.6,0.3,1.5,0.3,2.7c0,0.9-0.1,1.7-0.2,2.3c-0.1,0-0.1,0-0.2,0c-0.1,0-0.3,0-0.5,0.2c-0.1-0.6-0.2-1.4-0.2-2.5
	C165.3,231.2,165.5,230.3,165.6,229.7z M165.5,4.7c0-2,0.4-3.3,0.6-3.6c0.2,0.4,0.6,1.6,0.6,3.6c0,0.6,0,1.2-0.1,1.6
	C166.4,6,166.2,6,166.1,6c-0.1,0-0.3,0-0.5,0.3C165.5,5.8,165.5,5.3,165.5,4.7z M165.3,17.9c0-1.1,0.1-2,0.3-2.6
	c0.2,0.3,0.4,0.3,0.5,0.3c0.1,0,0.2,0,0.4-0.1c0.1,0.6,0.2,1.4,0.2,2.4c0,1.1-0.1,2-0.3,2.6c-0.1-0.1-0.2-0.1-0.3-0.1
	c-0.1,0-0.3,0-0.5,0.3C165.4,20.1,165.3,19.1,165.3,17.9z M165.4,32.8c0-1.2,0.1-2.2,0.3-2.8c0.1,0.1,0.3,0.1,0.4,0.1
	c0.1,0,0.2,0,0.3-0.1c0.2,0.6,0.3,1.6,0.3,2.8c0,1-0.1,1.8-0.2,2.4c-0.1-0.1-0.3-0.1-0.4-0.1c-0.1,0-0.3,0-0.4,0.2
	C165.5,34.7,165.4,33.8,165.4,32.8z M165.3,47c0-1.1,0.1-2,0.3-2.6c0.2,0.3,0.4,0.3,0.5,0.3c0.1,0,0.2,0,0.4-0.1
	c0.1,0.6,0.2,1.4,0.2,2.4c0,1.1-0.1,2-0.3,2.6c-0.1-0.1-0.2-0.1-0.3-0.1c-0.1,0-0.3,0-0.5,0.3C165.4,49.1,165.3,48.2,165.3,47z
	 M165.4,61.9c0-1.2,0.1-2.2,0.3-2.8c0.1,0.1,0.3,0.1,0.4,0.1c0.1,0,0.2,0,0.3-0.1c0.2,0.6,0.3,1.6,0.3,2.8c0,0.4,0,0.7,0,1
	c-0.2-0.6-0.5-0.6-0.7-0.6c-0.1,0-0.3,0-0.5,0.3C165.5,62.3,165.4,62.1,165.4,61.9z M165.2,74.1c0-1.1,0.1-2,0.3-2.6
	c0.2,0.3,0.4,0.3,0.5,0.3c0.1,0,0.2,0,0.4-0.1c0.1,0.6,0.2,1.4,0.2,2.4c0,1.1-0.1,2-0.3,2.6c-0.1-0.1-0.2-0.1-0.3-0.1
	c-0.1,0-0.3,0-0.5,0.3C165.3,76.3,165.2,75.3,165.2,74.1z M165.3,89c0-1.2,0.1-2.2,0.3-2.8c0.1,0.1,0.3,0.1,0.4,0.1
	c0.1,0,0.2,0,0.3-0.1c0.2,0.6,0.3,1.6,0.3,2.8c0,0.6,0,1.2-0.1,1.6c-0.2-0.3-0.4-0.3-0.5-0.3c-0.1,0-0.3,0-0.5,0.3
	C165.3,90.2,165.3,89.6,165.3,89z M165.1,102.2c0-1.1,0.1-2,0.3-2.6c0.2,0.3,0.4,0.3,0.5,0.3c0.1,0,0.2,0,0.4-0.1
	c0.1,0.6,0.2,1.4,0.2,2.4c0,1.1-0.1,2-0.3,2.6c-0.1-0.1-0.2-0.1-0.3-0.1c-0.1,0-0.3,0-0.5,0.2C165.2,104.4,165.1,103.4,165.1,102.2z
	 M165.2,117.1c0-1.2,0.1-2.2,0.3-2.8c0.1,0.1,0.3,0.1,0.4,0.1c0.1,0,0.2,0,0.3-0.1c0.2,0.6,0.3,1.6,0.3,2.8c0,1-0.1,1.8-0.2,2.4
	c-0.1-0.1-0.3-0.1-0.4-0.1c-0.1,0-0.3,0-0.4,0.2C165.3,119,165.2,118.2,165.2,117.1z M165.1,131.3c0-1.1,0.1-2,0.3-2.6
	c0.2,0.3,0.4,0.3,0.5,0.3c0.1,0,0.2,0,0.4-0.1c0.1,0.6,0.2,1.4,0.2,2.4c0,1.1-0.1,2-0.3,2.6c-0.1-0.1-0.2-0.1-0.3-0.1
	c-0.1,0-0.3,0-0.5,0.2C165.2,133.5,165.1,132.5,165.1,131.3z M165.2,146.2c0-1.2,0.1-2.2,0.3-2.8c0.1,0.1,0.3,0.1,0.4,0.1
	c0.1,0,0.2,0,0.3-0.1c0.2,0.6,0.3,1.6,0.3,2.8c0,0.9-0.1,1.7-0.2,2.3c-0.1,0-0.1,0-0.2,0c0,0,0,0-0.1,0c0,0-0.1,0-0.1,0
	c-0.1,0-0.3,0-0.5,0.2C165.3,148.1,165.2,147.2,165.2,146.2z M165.2,246.6c0-1.1,0.1-2,0.3-2.6c0.2,0.3,0.4,0.3,0.5,0.3
	c0.1,0,0.2,0,0.4-0.1c0.1,0.6,0.2,1.4,0.2,2.4c0,1.1-0.1,2-0.3,2.6c-0.1-0.1-0.2-0.1-0.3-0.1c-0.1,0-0.3,0-0.5,0.2
	C165.4,248.7,165.2,247.8,165.2,246.6z M165.4,261.5c0-1.2,0.1-2.2,0.3-2.8c0.1,0.1,0.3,0.1,0.4,0.1c0.1,0,0.2,0,0.3-0.1
	c0.2,0.6,0.3,1.6,0.3,2.8c0,0.6,0,1.2-0.1,1.6c-0.2-0.3-0.4-0.3-0.5-0.3c-0.1,0-0.3,0-0.5,0.3C165.4,262.6,165.4,262.1,165.4,261.5z
	 M165.2,274.7c0-1.1,0.1-2,0.3-2.6c0.2,0.3,0.4,0.3,0.5,0.3c0.1,0,0.2,0,0.4-0.1c0.1,0.6,0.2,1.4,0.2,2.4c0,1.1-0.1,2-0.3,2.6
	c-0.1-0.1-0.2-0.1-0.3-0.1c-0.1,0-0.3,0-0.5,0.2C165.3,276.8,165.2,275.9,165.2,274.7z M165.3,289.6c0-1.2,0.1-2.2,0.3-2.8
	c0.1,0.1,0.3,0.1,0.4,0.1c0.1,0,0.2,0,0.3-0.1c0.2,0.6,0.3,1.6,0.3,2.8c0,1-0.1,1.8-0.2,2.4c-0.1-0.1-0.3-0.1-0.4-0.1
	c-0.1,0-0.3,0-0.4,0.2C165.4,291.4,165.3,290.6,165.3,289.6z M165.2,303.8c0-1.1,0.1-2,0.3-2.6c0.2,0.3,0.4,0.3,0.5,0.3
	c0.1,0,0.2,0,0.4-0.1c0.1,0.6,0.2,1.4,0.2,2.4c0,1.1-0.1,2-0.3,2.6c-0.1-0.1-0.2-0.1-0.3-0.1c-0.1,0-0.3,0-0.5,0.2
	C165.3,305.9,165.2,305,165.2,303.8z M165,334.8c0-2.4,0.6-3.6,0.7-3.7c0.2,0.1,0.8,1.4,0.8,3.7c0,1.8-0.3,3-0.6,3.4l-0.4-0.1
	C165.3,337.6,165,336.5,165,334.8z M160.9,358.6l-0.4,2l-0.1,0L160.9,358.6z"/>
<g>
	<path d="M99.3,314c-0.2-0.2-6.4-0.4-7.2-0.2c-0.7,0.2-4.3,3.3-4.3,3.3l-9.2,1.5c0,0-5.5-14.6-7.2-16.2
		s-11.6-6.2-11.6-6.2l-0.6-2.7c0,0,1.7-0.5,3-1.9s1.9-2.1,2.3-2.8c0.4-0.7,0.8-3.2,0.8-3.2s1.7-0.2,2.5-1c0.6-0.8,2.2-3,2-5
		c-0.5-1.7-2.7-1.3-2.7-1.3s1.1-4.6,0.8-7.8s-0.8-4.3-1.6-6s-3.1-4.3-6.9-6.7c-3.8-2.3-13.2,0-13.2,0l-5-0.8l0.2,3
		c0-0.1-0.2-0.3-1.8,1.4c-0.9,0.9-1.5,1.9-2.1,3l0,0c0,0,0,0.1-0.1,0.1c-0.6,1.3-1,2.7-1.2,3.9c-0.1,0.5,0,1.2,0,2.1c0,0,0,0,0,0
		c-0.3,3.2,0.8,7.8,0.8,7.8s-2.2-0.3-2.7,1.3c-0.2,2,1.4,4.2,2,5c0.7,0.8,2.8,0.9,2.8,0.9s0.6,1.8,1.3,3.3s0.6,1.3,1.9,2.7l1.1,0.8
		c0,0,3.4,1.3,3.9,1.8c0.5,0.5-0.3,2.3-0.3,2.3s-2.4,0.7-5.9,2.1c-3.5,1.6-5.5,2.8-7.2,4.6c-1.1,1.2-10.2,15.5-10.2,15.5l-8.7-2.3
		c0,0-1.6-1.3-3.3-2.3s-7.8-0.8-9-0.3c-1.2,0.5-1.2,1.7-1.2,3s0.4,2.1,0.8,2.8c0.5,0.7,2.8,2.9,4,3.3c1.2,0.4,6.2,0,6.2,0
		s12.2,6,13,6c0.8,0,2.7,0.1,4-1.2c0.8-0.8,5.8-9.2,5.8-9.2L30.4,360c0,0,7.7,6.7,21.7,6.7s20.3-6.7,20.3-6.7l-4-43.3
		c0,0,3.5,9,4,9.7c0.5,0.7,2,1.3,3,1.5c1,0.2,3.9,0,8.3-1.3c1.4-0.3,6.5-2.5,6.5-2.5s9-1.3,9.7-1.8c0.4-0.5,2.2-2.3,2.5-3.3
		C102.7,317.8,100.9,315.1,99.3,314z"/>
	<path d="M42.9,291.9c0,0,0.1,0.1,0.1,0.1C42.9,291.9,42.9,291.9,42.9,291.9z"/>
	<path d="M42.5,291.5C42.5,291.5,42.5,291.5,42.5,291.5C42.5,291.5,42.5,291.5,42.5,291.5z"/>
	<path d="M43,292C43,292,43,292,43,292C43,292,43,292,43,292z"/>
	<path d="M42.6,291.6C42.6,291.6,42.6,291.6,42.6,291.6C42.6,291.6,42.6,291.6,42.6,291.6z"/>
	<path d="M42.6,291.6c0.1,0.1,0.1,0.2,0.2,0.2C42.8,291.8,42.7,291.7,42.6,291.6z"/>
	<path d="M37.8,263.7C37.9,263.5,37.9,263.5,37.8,263.7L37.8,263.7z"/>
	<path d="M37.7,263.8c0-0.1,0.1-0.1,0.1-0.2C37.8,263.7,37.8,263.8,37.7,263.8z"/>
	<path d="M43,292C43,292.1,43.1,292.1,43,292C43.1,292.1,43,292.1,43,292z"/>
	<path d="M37.5,264.3c0.1-0.2,0.2-0.3,0.2-0.5C37.6,264.1,37.5,264.3,37.5,264.3z"/>
	<path d="M43.1,292.1C43.1,292.1,43.1,292.1,43.1,292.1L43.1,292.1z"/>
	<path d="M44.2,415.3c-0.3-1-3.3-3.8-3.3-3.8s-0.2-9.6,0-13.5c0.2-3.9,3.3-18,3.3-18H29.9v10.3c0,0,0,2.2,0,6.5
		c0,4.3,4.6,17.2,4.6,17.2l-1.2,3.6l0,4.9c0,0-0.9,5.2-0.1,9.5c0.5,2,2.3,4.2,3,4.9s3.4,2.1,4.3,1.4c0.9-0.7,2.6-1.9,3.8-6.3
		c0.5-1.3,0-10.5,0-10.5S44.5,416.3,44.2,415.3z"/>
	<path d="M58.9,398l-1.3,16.5v4.8l-3.3,7.8c0,0-1.4,6.5,0,8c0.8,1.9,1.1,2.9,4.5,2.3c0.9-0.1,3.7-1.4,4.5-2.8
		c0.8-1.4,2.9-11.3,2.9-11.3s1.6-6.1,1.3-7.8c-0.3-1.3-2.3-2-2.3-2l3.3-14.5l2-19H58.9V398z"/>
</g>
</svg>
